<?xml version="1.0" encoding="utf-8"?>
<!-- Generator: Adobe Illustrator 22.0.1, SVG Export Plug-In . SVG Version: 6.00 Build 0)  -->
<svg version="1.1" id="Layer_1" xmlns="http://www.w3.org/2000/svg" xmlns:xlink="http://www.w3.org/1999/xlink" x="0px" y="0px"
	 viewBox="0 0 125 125" style="enable-background:new 0 0 125 125;" xml:space="preserve">
<style type="text/css">
	.st0{fill:none;stroke:#000000;stroke-width:0.9665;stroke-linecap:round;stroke-linejoin:round;stroke-miterlimit:10;}
</style>
<g>
	<polygon class="st0" points="92.9,113.5 92.9,113.6 62.6,113.6 62.6,113.5 77.7,87.4 77.8,87.4 	"/>
	<polygon class="st0" points="47.4,87.3 47.4,87.4 32.3,113.5 32.3,113.6 2,113.6 2,113.5 17.1,87.4 17.2,87.4 17.2,87.3 32.3,61.1 
		32.3,61.1 	"/>
	<polygon class="st0" points="92.9,61.1 77.8,87.3 77.7,87.4 62.6,113.5 62.6,113.6 32.3,113.6 32.3,113.5 47.4,87.4 47.5,87.4 
		47.4,87.3 62.6,61.1 	"/>
	<polygon class="st0" points="123.2,113.5 123.2,113.6 92.9,113.6 92.9,113.5 77.8,87.4 77.8,87.3 92.9,61.1 92.9,61.1 108,87.3 
		108,87.4 108.1,87.4 	"/>
	<polygon class="st0" points="92.9,61.1 92.9,61.1 62.6,61.1 62.6,61.1 47.5,34.9 47.4,34.8 62.6,8.6 62.6,8.6 77.8,34.8 77.7,34.9 
		77.8,34.9 	"/>
	<polygon class="st0" points="62.6,61.1 62.6,61.1 62.6,61.1 32.3,61.1 32.3,61.1 47.4,34.9 47.5,34.9 	"/>
</g>
</svg>
