<svg xmlns="http://www.w3.org/2000/svg" viewBox="0 0 134.78 116.73"><defs><style>.cls-1{fill:#ee8767;}.cls-2{fill:#756e68;}.cls-3{fill:#4f4c4a;}.cls-4{fill:#bf6664;}.cls-5{fill:#918b87;}.cls-6{fill:#dd735b;}</style></defs><title>monogram1</title><g id="Layer_2" data-name="Layer 2"><g id="Layer_4" data-name="Layer 4"><polygon class="cls-1" points="123.61 97.28 134.78 116.63 134.72 116.73 44.98 116.73 44.93 116.63 56.1 97.28 56.22 97.28 78.56 97.28 101.15 97.28 123.49 97.28 123.61 97.28"/><polygon class="cls-2" points="112.37 77.82 123.55 97.18 123.49 97.28 101.15 97.28 101.09 97.17 89.92 77.82 112.26 77.82 112.37 77.82"/><polygon class="cls-3" points="101.14 58.37 112.32 77.72 112.26 77.82 89.92 77.82 89.85 77.71 101.02 58.37 101.14 58.37"/><polygon class="cls-2" points="89.91 38.91 101.08 58.26 101.02 58.37 78.69 58.37 78.62 58.26 67.45 38.91 89.8 38.91 89.91 38.91"/><polygon class="cls-1" points="101.02 58.37 89.85 77.71 89.79 77.82 67.45 77.82 67.39 77.72 67.33 77.82 44.98 77.82 44.93 77.72 44.87 77.82 22.52 77.82 22.46 77.72 33.63 58.37 33.75 58.37 56.1 58.37 78.69 58.37 101.02 58.37"/><polygon class="cls-3" points="78.68 19.46 89.85 38.81 89.8 38.91 67.45 38.91 67.39 38.82 78.57 19.46 78.68 19.46"/><polygon class="cls-4" points="89.79 77.82 78.62 97.17 67.45 77.82 89.79 77.82"/><polygon class="cls-5" points="67.44 0 78.62 19.36 78.57 19.46 67.39 38.82 56.16 58.27 56.1 58.37 33.75 58.37 33.69 58.26 67.33 0 67.44 0"/><polygon class="cls-6" points="67.45 77.82 78.62 97.17 78.56 97.28 56.22 97.28 56.16 97.18 67.33 77.82 67.39 77.72 67.45 77.82"/><polygon class="cls-2" points="56.1 97.28 44.93 116.63 33.76 97.28 56.1 97.28"/><polygon class="cls-3" points="33.76 97.28 44.93 116.63 44.87 116.73 22.52 116.73 22.46 116.63 33.64 97.28 33.76 97.28"/><polygon class="cls-2" points="44.87 77.82 33.7 97.18 22.52 77.82 44.87 77.82"/><polygon class="cls-5" points="22.52 77.82 33.7 97.18 33.64 97.28 22.46 116.63 22.41 116.73 0.06 116.73 0 116.62 22.4 77.82 22.52 77.82"/></g></g></svg>