<?xml version="1.0" encoding="utf-8"?>
<!-- Generator: Adobe Illustrator 25.2.3, SVG Export Plug-In . SVG Version: 6.00 Build 0)  -->
<svg version="1.1" id="Layer_1" xmlns="http://www.w3.org/2000/svg" xmlns:xlink="http://www.w3.org/1999/xlink" x="0px" y="0px"
	 viewBox="0 0 124 124" style="enable-background:new 0 0 124 124;" xml:space="preserve">
<style type="text/css">
	.st0{fill:#FFFFFF;stroke:#FFFFFF;stroke-miterlimit:10;}
	.st1{fill-rule:evenodd;clip-rule:evenodd;fill:#333033;}
</style>
<path class="st0" d="M118.5,27.6c-3.6,1.6-7.7,2.6-11.5,3.2c1.9-0.2,4.6-3.6,5.7-4.8c1.7-2,3.1-4.3,3.8-6.8c0.1-0.2,0.1-0.5,0-0.6
	c-0.3-0.1-0.4,0-0.6,0c-4.3,2.2-8.8,4-13.6,5.1c-0.4,0.1-0.6,0-0.9-0.2c-0.4-0.5-0.8-0.9-1.1-1.2c-2-1.6-4.2-3-6.6-4
	c-3.2-1.2-6.8-1.9-10.2-1.6c-3.3,0.2-6.6,1.1-9.6,2.6c-2.9,1.5-5.6,3.6-7.8,6.2c-2.2,2.6-3.8,5.7-4.6,9c-0.8,3.2-0.8,6.3-0.3,9.5
	c0.1,0.5,0,0.6-0.5,0.5c-18.9-2.6-34.4-9-47-23c-0.5-0.6-0.9-0.6-1.3,0c-5.5,8-2.8,20.9,4.1,27.3c0.9,0.9,1.9,1.7,2.9,2.5
	c-0.4,0.1-5-0.4-9.1-2.5c-0.5-0.4-0.8-0.1-0.9,0.5c0,0.9,0,1.6,0.1,2.6c1,8.2,6.9,15.7,14.8,18.6c0.9,0.4,2,0.7,3.1,0.9
	c-1.8,0.4-3.7,0.6-8.9,0.2c-0.6-0.1-0.9,0.2-0.6,0.7c3.8,10.4,12.2,13.5,18.6,15.2c0.9,0.1,1.7,0.1,2.6,0.4c0,0.1-0.1,0.1-0.1,0.1
	c-2,3.1-9.3,5.4-12.8,6.6c-6.1,2.1-12.9,3-19.4,2.4c-1-0.1-1.3-0.1-1.5,0c-0.3,0.1,0,0.4,0.3,0.6c1.3,0.9,2.7,1.6,4.1,2.4
	c4.1,2.1,8.4,3.8,12.9,5.1c23.2,6.2,49.5,1.6,66.9-15.2C103,76.5,107.9,58.4,107.9,40c0-0.7,0.9-1.1,1.4-1.5
	c3.6-2.6,6.4-5.7,9.1-9.2c0.6-0.7,0.5-1.5,0.5-1.7v-0.1C118.8,27.3,119,27.3,118.5,27.6z"/>
<path class="st1" d="M43.9,101C51.4,101,44.2,101,43.9,101C44.9,101,43.8,101,43.9,101z M43.9,101C43.8,101,42.4,101,43.9,101
	C43.9,101,43.6,101,43.9,101z M46.9,101.1C46.9,100.9,48.5,101.1,46.9,101.1C46.9,101,47.1,101.1,46.9,101.1z M78.5,27.9
	c-0.1,0.1-0.2,0.1-0.4,0C78.2,27.9,78.4,27.9,78.5,27.9z"/>
</svg>
